<?xml version="1.0" encoding="UTF-8" standalone="no"?>
<svg width="40" height="40" viewBox="0 0 40 40" fill="none" xmlns="http://www.w3.org/2000/svg">
  <defs>
    <linearGradient id="gradient1" x1="0%" y1="0%" x2="100%" y2="100%">
      <stop offset="0%" style="stop-color:#3b82f6;stop-opacity:1" />
      <stop offset="100%" style="stop-color:#06b6d4;stop-opacity:1" />
    </linearGradient>
    <linearGradient id="gradient2" x1="0%" y1="0%" x2="100%" y2="100%">
      <stop offset="0%" style="stop-color:#8b5cf6;stop-opacity:1" />
      <stop offset="100%" style="stop-color:#3b82f6;stop-opacity:1" />
    </linearGradient>
  </defs>
  
  <!-- Background circle -->
  <circle cx="20" cy="20" r="18" fill="url(#gradient1)" opacity="0.1"/>
  
  <!-- Letter Y -->
  <path d="M12 8 L18 18 L18 28 L22 28 L22 18 L28 8 L24 8 L20 14 L16 8 Z" fill="url(#gradient1)"/>
  
  <!-- Letter W (stylized as overlapping triangles) -->
  <path d="M8 24 L12 32 L16 24 L20 32 L24 24 L32 24 L32 28 L26 28 L22 36 L18 28 L14 36 L10 28 L8 28 Z" fill="url(#gradient2)" opacity="0.8"/>
  
  <!-- Accent dots -->
  <circle cx="32" cy="12" r="2" fill="url(#gradient2)"/>
  <circle cx="8" cy="12" r="1.5" fill="url(#gradient1)" opacity="0.6"/>
</svg>